<svg width="1920" height="1080" viewBox="0 0 1920 1080" fill="none" xmlns="http://www.w3.org/2000/svg">
<path d="M0 0H1920V1080H0V875.396V0Z" fill="url(#paint0_linear_1_176)"/>
<path d="M1359 958H1630V1050.5L1359 1053V958Z" fill="url(#paint1_linear_1_176)"/>
<path d="M1630 958H1701V1080H1664L1630 1050.5V958Z" fill="url(#paint2_linear_1_176)"/>
<path d="M1359 1053L1630 1050.5L1664 1080H1630H1359V1053Z" fill="url(#paint3_linear_1_176)"/>
<path d="M1719 958H1982.87V1050.5L1716.5 1053L1719 958Z" fill="url(#paint4_linear_1_176)"/>
<path d="M1716.5 1053L1982.87 1050.5L2015.97 1080H1982.87H1716.5V1053Z" fill="url(#paint5_linear_1_176)"/>
<path d="M1701 958H1719L1716.5 1039V1080H1701V958Z" fill="url(#paint6_linear_1_176)"/>
<path d="M1342 941L1920 938.5V958H1342V941Z" fill="url(#paint7_linear_1_176)"/>
<path d="M1342 958H1359V1080H1342V958Z" fill="url(#paint8_linear_1_176)"/>
<path d="M1274.5 884.5L1337.5 969L1335.5 1080H1273L1274.5 884.5Z" fill="url(#paint9_linear_1_176)"/>
<path d="M1337.5 969L1274.5 884.5V856.5L1342 941V1080H1335.5L1337.5 969Z" fill="url(#paint10_linear_1_176)"/>
<path d="M1275 860L1884.5 857L1920.5 872.5V942L1342.5 944.5L1275 860Z" fill="url(#paint11_linear_1_176)"/>
<path d="M508 952.268H237V1049.11L508 1051.73V952.268Z" fill="url(#paint12_linear_1_176)"/>
<path d="M237 952.268H166V1080H203L237 1049.11V952.268Z" fill="url(#paint13_linear_1_176)"/>
<path d="M508 1051.73L237 1049.11L203 1080H237H508V1051.73Z" fill="url(#paint14_linear_1_176)"/>
<path d="M148 952.268H-115.868V1049.11L150.5 1051.73L148 952.268Z" fill="url(#paint15_linear_1_176)"/>
<path d="M150.5 1051.73L-115.868 1049.11L-148.974 1080H-115.868H150.5V1051.73Z" fill="url(#paint16_linear_1_176)"/>
<path d="M166 952.268H148L150.5 1037.07V1080H166V952.268Z" fill="url(#paint17_linear_1_176)"/>
<path d="M525 934.47L-53 931.852V952.268H525V934.47Z" fill="url(#paint18_linear_1_176)"/>
<path d="M525 952.268H508V1080H525V952.268Z" fill="url(#paint19_linear_1_176)"/>
<path d="M592.5 875.315L529.5 963.785L531.5 1080H594L592.5 875.315Z" fill="url(#paint20_linear_1_176)"/>
<path d="M529.5 963.785L592.5 875.315V846L525 934.47V1080H531.5L529.5 963.785Z" fill="url(#paint21_linear_1_176)"/>
<path d="M592 849.664L-17.5 846.523L-53.5 862.752V935.517L524.5 938.134L592 849.664Z" fill="url(#paint22_linear_1_176)"/>
<path d="M0 714.5L90.5 708L94 857L0 867.5V714.5Z" fill="url(#paint23_linear_1_176)"/>
<path d="M-36.5 773L37.5 774L24 888H-43.5L-36.5 773Z" fill="url(#paint24_linear_1_176)"/>
<path d="M37.5 774L42 770L33.5 881L24 888L37.5 774Z" fill="url(#paint25_linear_1_176)"/>
<path d="M0 770.5L42 770L37.5 774L0 773.5V770.5Z" fill="url(#paint26_linear_1_176)"/>
<path d="M132 764L214.5 758.5L227 865.5L137.5 880L132 764Z" fill="url(#paint27_linear_1_176)"/>
<defs>
<linearGradient id="paint0_linear_1_176" x1="960" y1="0" x2="960" y2="1080" gradientUnits="userSpaceOnUse">
<stop stop-color="#111111"/>
<stop offset="1" stop-color="#2D2D2D"/>
</linearGradient>
<linearGradient id="paint1_linear_1_176" x1="1494.5" y1="958" x2="1494.5" y2="1053" gradientUnits="userSpaceOnUse">
<stop stop-color="#111111"/>
<stop offset="1" stop-color="#2D2D2D"/>
</linearGradient>
<linearGradient id="paint2_linear_1_176" x1="1665.5" y1="958" x2="1665.5" y2="1080" gradientUnits="userSpaceOnUse">
<stop stop-color="#111111"/>
<stop offset="1" stop-color="#2D2D2D"/>
</linearGradient>
<linearGradient id="paint3_linear_1_176" x1="1511.5" y1="1050.5" x2="1511.5" y2="1080" gradientUnits="userSpaceOnUse">
<stop stop-color="#111111"/>
<stop offset="1" stop-color="#2D2D2D"/>
</linearGradient>
<linearGradient id="paint4_linear_1_176" x1="1849.68" y1="958" x2="1849.68" y2="1053" gradientUnits="userSpaceOnUse">
<stop stop-color="#111111"/>
<stop offset="1" stop-color="#2D2D2D"/>
</linearGradient>
<linearGradient id="paint5_linear_1_176" x1="1866.24" y1="1050.5" x2="1866.24" y2="1080" gradientUnits="userSpaceOnUse">
<stop stop-color="#111111"/>
<stop offset="1" stop-color="#2D2D2D"/>
</linearGradient>
<linearGradient id="paint6_linear_1_176" x1="1710" y1="958" x2="1710" y2="1080" gradientUnits="userSpaceOnUse">
<stop stop-color="#111111"/>
<stop offset="1" stop-color="#2D2D2D"/>
</linearGradient>
<linearGradient id="paint7_linear_1_176" x1="1631" y1="938.5" x2="1631" y2="958" gradientUnits="userSpaceOnUse">
<stop stop-color="#111111"/>
<stop offset="1" stop-color="#2D2D2D"/>
</linearGradient>
<linearGradient id="paint8_linear_1_176" x1="1350.5" y1="958" x2="1350.5" y2="1080" gradientUnits="userSpaceOnUse">
<stop stop-color="#111111"/>
<stop offset="1" stop-color="#2D2D2D"/>
</linearGradient>
<linearGradient id="paint9_linear_1_176" x1="1305.25" y1="884.5" x2="1305.25" y2="1080" gradientUnits="userSpaceOnUse">
<stop stop-color="#111111"/>
<stop offset="1" stop-color="#2D2D2D"/>
</linearGradient>
<linearGradient id="paint10_linear_1_176" x1="1308.25" y1="856.5" x2="1308.25" y2="1080" gradientUnits="userSpaceOnUse">
<stop stop-color="#111111"/>
<stop offset="1" stop-color="#2D2D2D"/>
</linearGradient>
<linearGradient id="paint11_linear_1_176" x1="1597.75" y1="857" x2="1597.75" y2="944.5" gradientUnits="userSpaceOnUse">
<stop stop-color="#111111"/>
<stop offset="1" stop-color="#2D2D2D"/>
</linearGradient>
<linearGradient id="paint12_linear_1_176" x1="372.5" y1="952.268" x2="372.5" y2="1051.73" gradientUnits="userSpaceOnUse">
<stop stop-color="#111111"/>
<stop offset="1" stop-color="#2D2D2D"/>
</linearGradient>
<linearGradient id="paint13_linear_1_176" x1="201.5" y1="952.268" x2="201.5" y2="1080" gradientUnits="userSpaceOnUse">
<stop stop-color="#111111"/>
<stop offset="1" stop-color="#2D2D2D"/>
</linearGradient>
<linearGradient id="paint14_linear_1_176" x1="355.5" y1="1049.11" x2="355.5" y2="1080" gradientUnits="userSpaceOnUse">
<stop stop-color="#111111"/>
<stop offset="1" stop-color="#2D2D2D"/>
</linearGradient>
<linearGradient id="paint15_linear_1_176" x1="17.3158" y1="952.268" x2="17.3158" y2="1051.73" gradientUnits="userSpaceOnUse">
<stop stop-color="#111111"/>
<stop offset="1" stop-color="#2D2D2D"/>
</linearGradient>
<linearGradient id="paint16_linear_1_176" x1="0.763153" y1="1049.11" x2="0.763153" y2="1080" gradientUnits="userSpaceOnUse">
<stop stop-color="#111111"/>
<stop offset="1" stop-color="#2D2D2D"/>
</linearGradient>
<linearGradient id="paint17_linear_1_176" x1="157" y1="952.268" x2="157" y2="1080" gradientUnits="userSpaceOnUse">
<stop stop-color="#111111"/>
<stop offset="1" stop-color="#2D2D2D"/>
</linearGradient>
<linearGradient id="paint18_linear_1_176" x1="236" y1="931.852" x2="236" y2="952.268" gradientUnits="userSpaceOnUse">
<stop stop-color="#111111"/>
<stop offset="1" stop-color="#2D2D2D"/>
</linearGradient>
<linearGradient id="paint19_linear_1_176" x1="516.5" y1="952.268" x2="516.5" y2="1080" gradientUnits="userSpaceOnUse">
<stop stop-color="#111111"/>
<stop offset="1" stop-color="#2D2D2D"/>
</linearGradient>
<linearGradient id="paint20_linear_1_176" x1="561.75" y1="875.315" x2="561.75" y2="1080" gradientUnits="userSpaceOnUse">
<stop stop-color="#111111"/>
<stop offset="1" stop-color="#2D2D2D"/>
</linearGradient>
<linearGradient id="paint21_linear_1_176" x1="558.75" y1="846" x2="558.75" y2="1080" gradientUnits="userSpaceOnUse">
<stop stop-color="#111111"/>
<stop offset="1" stop-color="#2D2D2D"/>
</linearGradient>
<linearGradient id="paint22_linear_1_176" x1="269.25" y1="846.523" x2="269.25" y2="938.134" gradientUnits="userSpaceOnUse">
<stop stop-color="#111111"/>
<stop offset="1" stop-color="#2D2D2D"/>
</linearGradient>
<linearGradient id="paint23_linear_1_176" x1="47" y1="708" x2="47" y2="867.5" gradientUnits="userSpaceOnUse">
<stop stop-color="#111111"/>
<stop offset="1" stop-color="#2D2D2D"/>
</linearGradient>
<linearGradient id="paint24_linear_1_176" x1="-3" y1="773" x2="-3" y2="888" gradientUnits="userSpaceOnUse">
<stop stop-color="#111111"/>
<stop offset="1" stop-color="#2D2D2D"/>
</linearGradient>
<linearGradient id="paint25_linear_1_176" x1="33" y1="770" x2="33" y2="888" gradientUnits="userSpaceOnUse">
<stop stop-color="#111111"/>
<stop offset="1" stop-color="#2D2D2D"/>
</linearGradient>
<linearGradient id="paint26_linear_1_176" x1="21" y1="770" x2="21" y2="774" gradientUnits="userSpaceOnUse">
<stop stop-color="#111111"/>
<stop offset="1" stop-color="#2D2D2D"/>
</linearGradient>
<linearGradient id="paint27_linear_1_176" x1="179.5" y1="758.5" x2="179.5" y2="880" gradientUnits="userSpaceOnUse">
<stop stop-color="#111111"/>
<stop offset="1" stop-color="#2D2D2D"/>
</linearGradient>
</defs>
</svg>
